<svg width="186" height="197" viewBox="0 0 186 197" fill="none" xmlns="http://www.w3.org/2000/svg">
<g clip-path="url(#clip0_6_35)">
<path d="M160.167 67.8333C160.167 36.8333 93 11 93 11V140.167C93 140.167 160.167 98.8333 160.167 67.8333Z" fill="#EA596E"/>
<path d="M25.8437 67.8333C25.8437 36.8333 93.0103 11 93.0103 11V140.167C93.0155 140.167 25.8437 98.8333 25.8437 67.8333Z" fill="#EA596E"/>
<path d="M139.5 67.8333C139.5 87.6372 93 129.833 93 129.833C93 129.833 46.5 87.6372 46.5 67.8333C46.5 42 93 11 93 11C93 11 139.5 42 139.5 67.8333Z" fill="#F4ABBA"/>
<path d="M67.1667 92.9795C80.352 114.958 57.8357 139.975 44.6555 135.579C31.4702 131.182 27.0733 144.367 40.2587 148.764C53.444 153.161 81.8607 146.718 97.3968 131.187C101.794 126.79 106.185 126.79 106.185 126.79L67.1667 92.9795Z" fill="#BE1931"/>
<path d="M118.833 92.9795C105.648 114.958 128.164 139.975 141.345 135.579C154.535 131.182 158.927 144.367 145.741 148.764C132.556 153.161 104.139 146.718 88.6032 131.187C84.2063 126.79 79.8095 126.79 79.8095 126.79L118.833 92.9795Z" fill="#BE1931"/>
<path d="M46.5 98.8333C59.6853 120.812 39.4268 157.558 26.2415 153.161C13.0562 148.764 8.65933 161.955 21.8447 166.351C35.03 170.748 63.4467 164.305 78.9828 148.769C83.3797 144.372 87.7713 144.372 87.7713 144.372L46.5 98.8333ZM139.443 98.8333C126.253 120.812 146.511 157.558 159.702 153.161C172.887 148.764 177.279 161.955 164.098 166.351C150.908 170.748 122.496 164.305 106.96 148.769C102.563 144.367 98.1667 144.367 98.1667 144.367L139.443 98.8333Z" fill="#EA596E"/>
<path d="M159.758 178.142C147.761 182.141 124 150.5 129.167 119.5C139.5 93.6667 108.5 80.843 108.5 67.9212C108.5 36.3632 98.0065 17.6237 92.8398 17.6237C87.6732 17.6237 77.5 36.3632 77.5 67.9212C77.5 80.843 46.5 93.6667 56.8333 119.5C62 150.5 38.2385 182.141 26.2415 178.142C13.0562 173.745 8.65933 191.327 21.8447 195.719C35.03 200.115 58.3678 192.965 74.586 178.142C84.2115 169.343 93 169.343 93 169.343C93 169.343 101.788 169.343 111.409 178.136C127.627 192.96 150.965 200.11 164.15 195.713C177.335 191.322 172.944 173.745 159.758 178.142Z" fill="#F4ABBA"/>
<path d="M74.9167 145.333C82.0503 145.333 87.8333 139.55 87.8333 132.417C87.8333 125.283 82.0503 119.5 74.9167 119.5C67.783 119.5 62 125.283 62 132.417C62 139.55 67.783 145.333 74.9167 145.333Z" fill="#292F33"/>
<path d="M111.083 145.333C118.217 145.333 124 139.55 124 132.417C124 125.283 118.217 119.5 111.083 119.5C103.95 119.5 98.1667 125.283 98.1667 132.417C98.1667 139.55 103.95 145.333 111.083 145.333Z" fill="#292F33"/>
</g>
<g clip-path="url(#clip1_6_35)">
<path d="M127 0H57V70H127V0Z" fill="#512BD4"/>
<path d="M69.4762 44.7222C68.9813 44.7222 68.5606 44.5573 68.2141 44.2274C67.8676 43.8891 67.6944 43.4874 67.6944 43.0222C67.6944 42.5485 67.8676 42.1426 68.2141 41.8043C68.5606 41.466 68.9813 41.2968 69.4762 41.2968C69.9794 41.2968 70.4043 41.466 70.7507 41.8043C71.1055 42.1426 71.2828 42.5485 71.2828 43.0222C71.2828 43.4874 71.1055 43.8891 70.7507 44.2274C70.4043 44.5573 69.9794 44.7222 69.4762 44.7222Z" fill="white"/>
<path d="M89.2625 44.4431H86.0452L77.5693 31.0711C77.3548 30.7328 77.1773 30.3817 77.0372 30.018H76.9629C77.0289 30.4072 77.0619 31.2403 77.0619 32.5173V44.4431H74.2159V26.25H77.6434L85.8349 39.3048C86.1814 39.8463 86.4041 40.2184 86.5032 40.4213H86.5526C86.4702 39.9393 86.4289 39.1231 86.4289 37.9727V26.25H89.2625V44.4431Z" fill="white"/>
<path d="M103.122 44.4431H93.1607V26.25H102.726V28.8128H96.1057V33.9637H102.206V36.5137H96.1057V41.893H103.122V44.4431Z" fill="white"/>
<path d="M117.278 28.8128H112.18V44.4431H109.235V28.8128H104.149V26.25H117.278V28.8128Z" fill="white"/>
</g>
<defs>
<clipPath id="clip0_6_35">
<rect width="186" height="186" fill="white" transform="translate(0 11)"/>
</clipPath>
<clipPath id="clip1_6_35">
<rect width="70" height="70" fill="white" transform="translate(57)"/>
</clipPath>
</defs>
</svg>
